<mxfile host="Electron" agent="Mozilla/5.0 (Macintosh; Intel Mac OS X 10_15_7) AppleWebKit/537.36 (KHTML, like Gecko) draw.io/24.7.17 Chrome/128.0.6613.36 Electron/32.0.1 Safari/537.36" version="24.7.17">
  <diagram name="Page-1" id="1aPy2tKYLTjAeRC8Np73">
    <mxGraphModel dx="2074" dy="1214" grid="1" gridSize="10" guides="1" tooltips="1" connect="1" arrows="1" fold="1" page="1" pageScale="1" pageWidth="1600" pageHeight="900" math="0" shadow="0">
      <root>
        <mxCell id="0" />
        <mxCell id="1" parent="0" />
        <mxCell id="X8SNlpMpVfubvDBhcZdF-4" style="edgeStyle=orthogonalEdgeStyle;rounded=0;orthogonalLoop=1;jettySize=auto;html=1;entryX=0.5;entryY=0;entryDx=0;entryDy=0;" edge="1" parent="1" source="X8SNlpMpVfubvDBhcZdF-1" target="X8SNlpMpVfubvDBhcZdF-2">
          <mxGeometry relative="1" as="geometry" />
        </mxCell>
        <mxCell id="X8SNlpMpVfubvDBhcZdF-5" style="edgeStyle=orthogonalEdgeStyle;rounded=0;orthogonalLoop=1;jettySize=auto;html=1;entryX=0.5;entryY=0;entryDx=0;entryDy=0;" edge="1" parent="1" source="X8SNlpMpVfubvDBhcZdF-1" target="X8SNlpMpVfubvDBhcZdF-3">
          <mxGeometry relative="1" as="geometry" />
        </mxCell>
        <mxCell id="X8SNlpMpVfubvDBhcZdF-1" value="Dataloader" style="rounded=0;whiteSpace=wrap;html=1;" vertex="1" parent="1">
          <mxGeometry x="740" y="420" width="120" height="60" as="geometry" />
        </mxCell>
        <mxCell id="X8SNlpMpVfubvDBhcZdF-2" value="&amp;nbsp;RigidBodyDataloader" style="rounded=0;whiteSpace=wrap;html=1;" vertex="1" parent="1">
          <mxGeometry x="640" y="530" width="120" height="60" as="geometry" />
        </mxCell>
        <mxCell id="X8SNlpMpVfubvDBhcZdF-3" value="&amp;nbsp;SampleReadingsDataloader" style="rounded=0;whiteSpace=wrap;html=1;" vertex="1" parent="1">
          <mxGeometry x="820" y="530" width="170" height="60" as="geometry" />
        </mxCell>
        <mxCell id="X8SNlpMpVfubvDBhcZdF-6" value="&amp;nbsp;Surfaceloader" style="rounded=0;whiteSpace=wrap;html=1;" vertex="1" parent="1">
          <mxGeometry x="1080" y="420" width="120" height="60" as="geometry" />
        </mxCell>
      </root>
    </mxGraphModel>
  </diagram>
</mxfile>
